<?xml version="1.0" standalone="no"?>
<!DOCTYPE svg PUBLIC "-//W3C//DTD SVG 20010904//EN"
 "http://www.w3.org/TR/2001/REC-SVG-20010904/DTD/svg10.dtd">
<svg version="1.0" xmlns="http://www.w3.org/2000/svg"
 width="609.000000pt" height="780.000000pt" viewBox="0 0 609.000000 780.000000"
 preserveAspectRatio="xMidYMid meet">
<metadata>
Created by potrace 1.16, written by Peter Selinger 2001-2019
</metadata>
<g transform="translate(0.000000,780.000000) scale(0.100000,-0.100000)"
fill="#000000" stroke="none">
<path d="M4054 7791 c-161 -39 -324 -229 -421 -491 -13 -36 -26 -72 -30 -80
-3 -8 -7 -22 -8 -30 -1 -8 -14 -59 -29 -113 -39 -147 -65 -314 -77 -492 -6
-94 -16 -165 -22 -171 -7 -7 -67 -44 -134 -83 l-123 -70 0 229 c0 273 5 265
-117 199 -135 -73 -927 -531 -945 -547 -16 -14 -18 -39 -18 -256 l0 -241 -368
-211 c-311 -178 -382 -215 -462 -239 -52 -15 -96 -29 -98 -31 -2 -1 1 -11 7
-22 10 -19 0 -27 -122 -97 -72 -42 -138 -84 -144 -93 -8 -10 -13 -48 -13 -102
0 -77 3 -89 22 -107 13 -12 233 -143 490 -290 376 -218 463 -271 450 -280 -10
-5 -21 -10 -25 -11 -5 0 -22 -12 -37 -27 -16 -15 -33 -24 -39 -21 -5 4 -14 -2
-20 -11 -6 -10 -11 -13 -11 -8 0 6 -5 3 -10 -5 -5 -8 -13 -15 -17 -16 -21 -2
-73 -31 -66 -37 3 -4 -3 -7 -15 -7 -11 0 -27 -7 -35 -15 -8 -8 -17 -12 -19
-10 -3 3 -15 -6 -28 -20 -13 -14 -32 -25 -42 -25 -10 0 -18 -5 -18 -11 0 -5
-4 -8 -9 -5 -5 3 -12 -1 -15 -9 -3 -8 -9 -14 -13 -14 -15 4 -73 -27 -66 -34 3
-4 -3 -7 -15 -7 -11 0 -27 -7 -35 -15 -8 -8 -17 -12 -19 -10 -3 3 -15 -6 -28
-20 -13 -14 -32 -25 -42 -25 -10 0 -18 -5 -18 -11 0 -5 -4 -8 -9 -5 -5 3 -12
-1 -15 -9 -3 -8 -9 -14 -13 -14 -15 4 -73 -27 -66 -34 3 -4 -3 -7 -15 -7 -11
0 -28 -7 -36 -16 -9 -8 -16 -12 -16 -8 0 4 -12 -5 -26 -20 -15 -14 -35 -26
-45 -26 -11 0 -19 -5 -19 -11 0 -5 -4 -8 -8 -5 -5 3 -15 -6 -22 -19 -7 -13
-17 -22 -22 -19 -12 8 -5 -19 7 -28 6 -4 24 -8 41 -8 56 0 188 -39 272 -80
149 -74 293 -201 455 -400 24 -30 50 -54 56 -52 8 2 10 -5 6 -18 -5 -14 1 -34
18 -58 13 -20 45 -71 70 -112 44 -71 50 -77 134 -122 73 -38 247 -108 271
-108 4 0 8 62 8 138 2 201 39 373 120 549 30 67 36 75 56 69 13 -3 29 -6 36
-6 19 0 14 -22 -12 -49 -33 -34 -82 -153 -113 -270 -20 -75 -26 -130 -30 -253
-7 -192 6 -302 57 -503 34 -132 130 -429 144 -443 10 -9 117 50 194 107 81 61
188 169 260 263 37 48 42 62 38 90 -3 18 -8 69 -10 113 -7 111 -37 304 -62
400 -4 13 -2 16 4 7 6 -9 14 -6 32 13 13 14 32 25 42 25 10 0 18 5 18 11 0 5
4 8 9 5 5 -3 12 1 15 9 3 8 9 14 13 14 15 -4 73 27 66 34 -3 4 3 7 15 7 11 0
28 7 36 16 9 8 16 12 16 8 0 -4 12 5 26 20 15 14 35 26 45 26 11 0 19 5 19 11
0 5 4 8 9 5 5 -3 12 1 15 9 3 8 9 15 13 14 13 -3 73 25 73 33 0 4 6 8 14 8 8
0 22 7 30 16 9 8 16 12 16 8 0 -4 12 5 26 19 14 14 39 29 55 32 17 4 33 13 36
21 3 8 15 14 27 14 15 0 7 8 -28 28 -65 36 -92 72 -77 101 16 30 78 58 152 71
84 13 95 13 112 -5 13 -13 16 3 19 138 3 146 4 154 31 200 15 26 46 59 68 74
21 14 39 27 39 29 0 2 -13 10 -30 19 -25 13 -30 21 -30 54 0 33 5 40 33 56
l33 17 93 -57 c51 -31 130 -70 176 -86 105 -35 278 -69 356 -69 l60 0 -3 248
c-1 136 -1 308 0 382 1 74 -1 262 -4 418 l-7 284 -66 -64 c-78 -76 -174 -158
-253 -218 l-58 -42 0 -69 c0 -38 -1 -69 -2 -69 -2 0 -25 7 -52 15 -72 22 -99
19 -175 -19 -73 -37 -101 -74 -101 -135 l0 -30 -41 14 c-23 8 -62 15 -88 15
l-46 0 63 36 c34 19 62 38 62 41 0 2 -22 2 -50 -2 -27 -4 -63 -4 -80 0 -27 6
-30 11 -30 43 0 28 -3 33 -10 22 -7 -10 -10 8 -10 60 0 41 -3 85 -6 97 -5 20
-2 22 37 25 43 3 42 4 -209 148 -138 79 -254 151 -257 158 -9 24 2 25 24 3 12
-12 32 -21 46 -21 15 0 25 -6 25 -14 0 -14 29 -29 57 -30 7 -1 18 -10 26 -20
8 -11 23 -20 34 -21 10 0 29 -11 41 -23 12 -12 33 -22 47 -22 15 0 25 -6 25
-14 0 -15 21 -26 47 -26 9 0 27 -12 40 -26 13 -14 26 -24 28 -22 2 2 1 90 -2
196 -3 108 -10 187 -14 180 -5 -8 -9 10 -9 44 0 50 3 60 24 74 18 11 30 13 43
6 14 -8 21 -4 35 20 27 43 98 72 156 63 l47 -7 -80 -74 c-44 -40 -75 -73 -68
-74 13 0 60 37 130 104 l42 39 41 -13 c22 -7 38 -18 36 -24 -20 -45 -37 -122
-32 -141 6 -22 2 -24 -31 -27 -37 -3 -35 -5 92 -77 l130 -74 20 28 c61 85 158
194 194 219 46 32 45 31 30 109 -9 44 -16 57 -30 57 -82 0 -128 95 -144 300
-5 74 9 297 20 308 2 2 18 -6 34 -18 30 -21 31 -23 31 -108 0 -111 6 -132 35
-132 54 0 94 -96 64 -151 -9 -17 -6 -28 15 -60 40 -60 99 -94 163 -94 l53 0
12 -40 c13 -40 13 -40 74 -46 106 -10 189 -77 230 -185 l16 -42 106 60 c59 33
115 69 125 80 25 30 25 176 -1 204 -10 11 -93 62 -185 114 -126 72 -165 99
-160 110 39 91 47 131 47 226 1 91 -1 104 -24 137 -31 46 -152 131 -205 145
-119 31 -220 23 -326 -24 -60 -27 -129 -91 -129 -120 0 -8 -5 -12 -10 -9 -6 4
-8 11 -5 16 3 5 0 6 -7 4 -8 -3 -22 1 -33 9 -19 15 -19 15 10 17 17 1 33 1 36
1 4 -1 17 22 29 50 12 28 42 92 66 141 24 50 44 93 44 97 0 4 -26 -3 -57 -15
-106 -43 -215 -66 -330 -72 -102 -5 -112 -8 -115 -26 -3 -19 -3 -19 -26 -1
l-23 19 20 120 c39 230 114 507 147 540 31 30 32 13 5 -68 -55 -161 -121 -502
-104 -531 9 -14 184 1 272 24 44 11 117 35 162 52 94 37 105 50 168 202 168
404 158 656 -33 851 -141 144 -310 209 -452 176z m-904 -1294 c0 -79 -3 -147
-7 -150 -3 -4 -12 -2 -20 4 -11 10 -13 -8 -13 -102 0 -131 -16 -180 -71 -221
-67 -50 -702 -408 -724 -408 -12 0 -34 9 -49 21 l-26 20 0 175 c0 196 6 221
62 270 20 18 101 69 181 115 80 46 143 86 140 89 -9 10 -28 5 -39 -9 -7 -9
-13 -10 -17 -4 -7 11 544 340 571 342 9 1 12 -34 12 -142z m591 -102 c64 -34
87 -120 49 -182 -27 -45 -62 -65 -114 -65 -52 -1 -88 19 -116 65 -69 113 61
243 181 182z m-410 -551 c143 -83 144 -84 127 -100 -23 -22 -862 -504 -878
-504 -25 0 -255 136 -255 151 0 13 856 516 881 518 6 1 63 -29 125 -65z m-33
-354 c34 -19 62 -39 62 -45 -1 -11 -166 -108 -184 -108 -6 0 -39 17 -74 38
-52 31 -61 40 -50 51 17 17 171 105 178 101 3 -1 33 -18 68 -37z m-1513 -170
c15 -16 31 -27 35 -25 6 3 450 -439 494 -491 19 -24 33 -13 -154 -120 -14 -8
-95 -52 -180 -99 -135 -74 -155 -83 -158 -66 -3 19 -6 18 -59 -5 -51 -23 -58
-24 -72 -10 -10 11 -11 16 -3 16 9 0 12 91 12 390 0 215 -3 390 -8 390 -4 0
-54 -13 -111 -30 -58 -16 -106 -28 -108 -27 -5 6 241 105 263 106 11 0 33 -12
49 -29z m1269 -394 c126 -69 131 -75 60 -65 -53 8 -61 7 -76 -12 -12 -14 -18
-38 -18 -69 0 -69 13 -96 52 -109 31 -10 249 -51 272 -51 12 0 -171 -107 -294
-172 l-75 -39 -5 83 -5 83 42 15 c42 15 83 46 83 62 0 5 -14 -2 -31 -14 -26
-19 -43 -23 -107 -23 -88 0 -146 24 -181 74 -22 31 -28 85 -11 96 6 4 9 23 8
43 -3 35 -2 37 87 89 49 29 96 53 104 53 7 0 50 -20 95 -44z m529 -538 c-11
-34 -12 -58 -3 -132 10 -85 88 -470 110 -545 5 -19 9 -36 7 -37 -5 -5 -442
536 -442 548 0 8 327 208 341 208 1 0 -5 -19 -13 -42z"/>
<path d="M2840 6351 c-9 -17 -15 -19 -30 -11 -15 8 -20 6 -25 -10 -7 -22 -20
-26 -31 -9 -4 8 -12 2 -21 -15 -14 -26 -16 -27 -33 -11 -17 15 -19 15 -34 -7
-9 -12 -16 -17 -16 -11 0 21 -322 -171 -355 -212 l-30 -37 -3 -175 c-3 -154
-1 -177 14 -194 9 -10 26 -19 37 -19 11 0 177 91 370 203 421 243 401 223 405
396 2 77 0 111 -7 102 -8 -12 -12 -12 -25 -2 -13 11 -17 9 -27 -13 -9 -20 -15
-23 -25 -15 -7 6 -18 8 -23 5 -5 -4 -25 7 -44 24 -30 26 -36 28 -41 14 -6 -15
-8 -15 -25 0 -18 17 -20 17 -31 -3z"/>
<path d="M3582 6294 c-42 -29 -16 -97 48 -124 28 -12 33 -11 55 10 40 37 32
91 -16 115 -36 19 -59 19 -87 -1z"/>
<path d="M3215 7351 c-74 -33 -147 -140 -125 -181 6 -11 15 -20 21 -20 5 0 73
43 150 96 82 56 146 94 154 90 8 -3 15 -1 15 3 0 12 -89 31 -138 31 -20 0 -55
-9 -77 -19z"/>
<path d="M4883 4047 l-162 -92 -1 -82 c0 -94 -2 -93 81 -64 135 46 232 119
244 183 3 18 5 59 3 90 l-3 57 -162 -92z"/>
<path d="M3975 3750 c-11 -4 -31 -20 -45 -35 l-25 -27 0 -216 0 -217 37 -9
c77 -19 124 31 121 129 -2 64 -17 193 -35 313 -11 72 -16 78 -53 62z"/>
<path d="M4045 3748 c2 -7 11 -38 20 -68 65 -216 136 -310 235 -310 34 0 47 6
71 31 26 27 29 38 29 94 0 38 -5 67 -12 73 -21 16 -330 192 -339 192 -5 0 -7
-6 -4 -12z"/>
<path d="M4807 3496 c-20 -11 -37 -23 -37 -26 0 -3 172 -104 383 -226 317
-183 384 -225 392 -248 8 -24 6 -31 -15 -48 -13 -10 -31 -17 -41 -15 -9 3
-187 103 -395 223 -247 142 -392 231 -415 256 -20 21 -42 38 -50 38 -8 0 -32
11 -54 25 -22 13 -44 25 -48 25 -5 0 -65 -117 -135 -260 l-127 -260 -88 105
-89 104 -29 -21 c-21 -16 -48 -23 -94 -26 l-65 -4 0 -37 c0 -82 7 -87 401
-315 201 -116 377 -219 392 -229 45 -29 33 -97 -18 -97 -18 0 -725 400 -797
451 -35 25 -78 113 -78 161 0 36 -8 47 -24 31 -4 -5 -11 -8 -14 -9 -21 -2 -62
-25 -62 -34 0 -5 -8 -10 -19 -10 -10 0 -24 -7 -31 -15 -7 -8 -15 -13 -19 -11
-3 2 -13 -1 -22 -7 -18 -14 -22 -77 -4 -77 6 0 20 -9 30 -20 10 -11 20 -18 23
-16 2 3 11 -1 19 -9 8 -8 24 -15 35 -15 12 0 18 -3 15 -7 -7 -7 51 -38 66 -34
4 0 10 -6 13 -14 3 -8 10 -12 15 -9 5 3 9 0 9 -5 0 -6 8 -11 18 -11 10 0 29
-11 42 -25 12 -13 26 -22 30 -20 4 3 13 -2 20 -10 7 -8 22 -15 33 -15 11 0 17
-3 14 -7 -7 -6 45 -35 66 -37 4 -1 12 -8 17 -16 5 -8 10 -10 10 -5 0 6 5 2 11
-7 5 -9 15 -15 22 -12 7 2 24 -7 36 -20 13 -14 27 -23 31 -21 4 3 13 -2 20
-10 7 -8 21 -15 31 -15 11 0 19 -5 19 -10 0 -9 42 -32 63 -34 4 -1 12 -8 17
-16 5 -8 10 -10 10 -5 0 6 5 2 11 -7 5 -9 15 -15 22 -12 7 2 24 -7 36 -20 13
-14 27 -23 31 -21 4 3 13 -2 20 -10 7 -8 20 -15 30 -15 10 0 20 -7 24 -15 3
-8 12 -15 19 -15 8 0 20 -6 26 -14 17 -20 137 -41 146 -25 3 4 14 5 25 2 11
-3 20 -1 20 4 0 5 18 16 40 23 21 7 37 17 34 21 -3 5 4 9 15 9 11 0 27 7 35
16 9 8 16 12 16 8 0 -4 12 5 26 20 15 14 35 26 45 26 11 0 27 9 36 20 10 11
25 20 34 20 9 0 22 7 29 15 7 8 16 13 20 10 4 -2 18 7 31 21 12 13 29 22 36
20 7 -3 17 3 22 12 6 9 11 13 11 7 0 -5 5 -3 10 5 5 8 13 15 17 16 21 2 73 31
66 37 -3 4 3 7 14 7 11 0 26 7 33 15 7 8 16 13 20 10 4 -2 18 7 30 20 13 14
32 25 42 25 10 0 18 5 18 11 0 5 4 8 9 5 5 -3 12 1 15 9 3 8 9 14 13 14 15 -4
73 27 66 34 -3 4 3 7 15 7 11 0 27 7 35 15 8 8 17 12 19 10 3 -3 15 6 28 20
13 14 32 25 42 25 10 0 18 5 18 11 0 5 4 8 9 5 5 -3 12 1 15 10 3 8 10 13 15
9 11 -6 33 28 29 47 -4 17 -22 37 -29 32 -4 -2 -9 3 -13 11 -3 8 -11 12 -19
10 -7 -3 -24 6 -36 19 -13 14 -27 23 -31 21 -4 -3 -13 2 -20 10 -7 8 -21 15
-31 15 -11 0 -19 5 -19 10 0 9 -42 32 -63 34 -4 1 -12 8 -17 16 -5 8 -10 11
-10 5 0 -5 -5 -2 -11 8 -6 9 -14 15 -20 12 -5 -4 -9 -2 -9 3 0 5 -8 12 -17 16
-10 3 -37 17 -60 30 -24 13 -43 22 -43 18 0 -3 -9 4 -20 16 -12 12 -29 22 -39
22 -10 0 -30 12 -45 26 -14 15 -26 24 -26 20 0 -4 -7 0 -16 8 -8 9 -25 16 -36
16 -12 0 -18 3 -15 7 7 7 -51 38 -66 34 -4 0 -10 6 -13 14 -3 8 -10 12 -15 9
-5 -3 -9 0 -9 5 0 6 -8 11 -18 11 -10 0 -29 11 -42 25 -12 13 -26 22 -31 20
-4 -3 -9 -1 -11 5 -1 5 -17 14 -33 19 -24 7 -39 4 -68 -13z"/>
<path d="M1978 2665 c-3 -3 19 -52 48 -108 30 -56 54 -111 54 -123 0 -24 -48
-197 -83 -300 -30 -87 -126 -284 -176 -361 -21 -32 -60 -82 -87 -111 l-49 -54
-152 164 c-228 245 -367 417 -490 609 l-57 90 -19 -36 -18 -36 84 -127 c164
-247 295 -401 607 -712 175 -175 308 -285 514 -428 l110 -76 -40 -17 c-61 -27
-298 -96 -403 -118 -52 -11 -147 -25 -210 -31 -64 -6 -140 -14 -169 -16 -29
-3 -50 -9 -48 -13 3 -4 22 -20 44 -34 38 -27 38 -27 142 -17 191 18 375 58
578 126 l193 64 132 -74 c338 -188 595 -304 978 -441 254 -91 265 -93 304 -60
16 13 27 26 25 28 -3 2 -57 21 -120 42 -170 55 -445 158 -610 228 -454 193
-966 507 -1230 755 l-85 79 47 51 c115 123 219 319 302 572 l53 160 93 -182
c90 -177 161 -310 210 -393 13 -22 30 -51 37 -65 8 -14 23 -38 33 -55 11 -16
24 -39 30 -50 6 -11 27 -45 48 -76 20 -31 50 -75 66 -99 29 -44 66 -88 66 -78
0 2 -23 43 -51 89 -178 295 -331 714 -379 1040 l-13 86 -76 22 c-41 12 -109
38 -150 57 -83 38 -76 36 -83 29z"/>
<path d="M3005 2148 c-88 -118 -340 -324 -423 -345 -29 -7 -27 -13 54 -177 67
-134 174 -305 274 -436 130 -171 181 -224 263 -277 79 -51 212 -114 272 -129
29 -7 29 -7 -10 27 -180 154 -305 429 -349 767 -23 177 -25 201 -45 514 l-6
96 -30 -40z"/>
</g>
</svg>
